<svg xmlns="http://www.w3.org/2000/svg" version="1.1" xmlns:xlink="http://www.w3.org/1999/xlink" xmlns:svgjs="http://svgjs.dev/svgjs" width="2000" height="666" viewBox="0 0 2000 666"><g transform="matrix(1,0,0,1,-1.2121212121212466,-1.0549784576713819)"><svg viewBox="0 0 396 132" data-background-color="#ffffff" preserveAspectRatio="xMidYMid meet" height="666" width="2000" xmlns="http://www.w3.org/2000/svg" xmlns:xlink="http://www.w3.org/1999/xlink"><g id="tight-bounds" transform="matrix(1,0,0,1,0.2400000000000091,0.22052087650246222)"><svg viewBox="0 0 395.52 131.55895824699508" height="131.55895824699508" width="395.52"><g><svg viewBox="0 0 651.3525579085829 216.65469248070565" height="131.55895824699508" width="395.52"><g transform="matrix(1,0,0,1,0,29.942869944873223)"><svg viewBox="0 0 395.5199999999999 156.7689525909592" height="156.7689525909592" width="395.5199999999999"><g id="textblocktransform"><svg viewBox="0 0 395.5199999999999 156.7689525909592" height="156.7689525909592" width="395.5199999999999" id="textblock"><g><svg viewBox="0 0 395.5199999999999 156.7689525909592" height="156.7689525909592" width="395.5199999999999"><g transform="matrix(1,0,0,1,0,0)"><svg width="395.5199999999999" viewBox="4.15 -35.3 90.69 35.949999999999996" height="156.7689525909592" data-palette-color="#278d81"><path d="M12 0L7.2 0Q6.15 0 5.5-0.6 4.85-1.2 4.8-2.25L4.8-2.25 4.8-28.85Q4.8-29.35 4.78-30.35 4.75-31.35 4.6-32.43 4.45-33.5 4.15-34.2L4.15-34.2Q4.95-34.6 6.58-34.95 8.2-35.3 11.3-35.3L11.3-35.3Q17.6-35.3 20.93-33.33 24.25-31.35 24.25-26.8L24.25-26.8Q24.25-23.75 22.68-21.5 21.1-19.25 18.1-18.35L18.1-18.35Q21.9-17.75 23.95-15.5 26-13.25 26-9.4L26-9.4Q26-5.9 24.35-3.83 22.7-1.75 19.58-0.88 16.45 0 12 0L12 0ZM8.85-33.4L8.85-1.85 12.15-1.85Q15.25-1.85 17.35-2.6 19.45-3.35 20.55-5 21.65-6.65 21.65-9.35L21.65-9.35Q21.65-12.5 20.48-14.2 19.3-15.9 17.18-16.57 15.05-17.25 12.15-17.25L12.15-17.25 8.3-17.25 7.95-19.1 13.05-19.1Q15.05-19.05 16.63-19.88 18.2-20.7 19.1-22.4 20-24.1 20-26.55L20-26.55Q20-30.1 17.93-31.8 15.85-33.5 11.1-33.5L11.1-33.5Q10.35-33.5 9.8-33.48 9.25-33.45 8.85-33.4L8.85-33.4ZM52 0L36.1 0Q35.1 0 34.45-0.6 33.8-1.2 33.8-2.25L33.8-2.25 33.75-28.45Q33.75-29.95 33.62-31.23 33.5-32.5 33.1-33.6L33.1-33.6Q33.8-34.25 34.52-34.45 35.25-34.65 36.55-34.65L36.55-34.65 51.65-34.65Q52.1-34.65 52.27-34.18 52.45-33.7 52.35-33.05 52.25-32.4 51.95-31.85 51.65-31.3 51.25-31.1L51.25-31.1Q48-31.65 44.65-32 41.3-32.35 37.75-32.4L37.75-32.4 37.8-2.2Q40.2-2.25 42.77-2.48 45.35-2.7 47.77-3 50.2-3.3 52.15-3.6L52.15-3.6Q52.55-3.35 52.77-2.78 53-2.2 53-1.58 53-0.95 52.75-0.48 52.5 0 52 0L52 0ZM50.05-17L37-17 37-19.4 50.05-19.4Q50.2-18.8 50.2-18.18 50.2-17.55 50.05-17L50.05-17ZM62.95 0.55L62.95 0.55Q61.95 0.55 61.3-0.05 60.65-0.65 60.65-1.65L60.65-1.65 60.59-28.85Q60.59-30.35 60.47-31.73 60.34-33.1 59.95-34.2L59.95-34.2Q60.25-34.5 60.84-34.8 61.45-35.1 62.3-35.1L62.3-35.1Q63.3-35.1 63.97-34.52 64.64-33.95 64.64-32.9L64.64-32.9 64.64-5.7Q64.64-4.25 64.77-2.85 64.89-1.45 65.3-0.35L65.3-0.35Q65-0.1 64.39 0.23 63.8 0.55 62.95 0.55ZM83.19 0.65L83.19 0.65Q79.29 0.65 76.82-0.35 74.34-1.35 73.17-3.05 71.99-4.75 71.99-6.75L71.99-6.75Q71.99-7.7 72.34-8.43 72.69-9.15 73.49-9.47 74.29-9.8 75.69-9.6L75.69-9.6Q75.54-9.15 75.52-8.63 75.49-8.1 75.54-7.5L75.54-7.5Q75.64-5.6 76.62-4.2 77.59-2.8 79.37-2 81.14-1.2 83.59-1.2L83.59-1.2Q86.79-1.2 88.82-2.73 90.84-4.25 90.84-7.3L90.84-7.3Q90.84-9.3 89.92-10.73 88.99-12.15 87.22-13.43 85.44-14.7 82.84-16.1L82.84-16.1Q79.99-17.75 77.82-19.23 75.64-20.7 74.44-22.58 73.24-24.45 73.24-27.1L73.24-27.1Q73.24-30.05 74.69-31.83 76.14-33.6 78.57-34.45 80.99-35.3 83.84-35.3L83.84-35.3Q88.29-35.3 91.04-33.68 93.79-32.05 93.79-29.1L93.79-29.1Q93.79-28.2 93.37-27.58 92.94-26.95 91.79-26.8L91.79-26.8Q91.14-26.6 90.24-26.8L90.24-26.8Q90.39-27.35 90.37-27.9 90.34-28.45 90.24-28.9L90.24-28.9Q90.09-30.35 89.22-31.35 88.34-32.35 86.84-32.9 85.34-33.45 83.44-33.45L83.44-33.45Q81.94-33.45 80.47-32.98 78.99-32.5 78.02-31.4 77.04-30.3 77.04-28.35L77.04-28.35Q77.04-26.35 78.04-24.93 79.04-23.5 80.84-22.3 82.64-21.1 85.09-19.75L85.09-19.75Q87.79-18.35 89.99-16.78 92.19-15.2 93.52-13.2 94.84-11.2 94.84-8.4L94.84-8.4Q94.84-6.7 94.24-5.08 93.64-3.45 92.24-2.18 90.84-0.9 88.62-0.13 86.39 0.65 83.19 0.65Z" opacity="1" transform="matrix(1,0,0,1,0,0)" fill="#ffffff" class="wordmark-text-0" data-fill-palette-color="primary" id="text-0"></path></svg></g></svg></g></svg></g></svg></g><g transform="matrix(1,0,0,1,432.5293872518632,0)"><svg viewBox="0 0 218.82317065671958 216.65469248070565" height="216.65469248070565" width="218.82317065671958"><g><svg xmlns="http://www.w3.org/2000/svg" xmlns:xlink="http://www.w3.org/1999/xlink" version="1.1" x="0" y="0" viewBox="0.5 0.7999999999999989 71.00909393313319 70.30541310248623" enable-background="new 0 0 72 72" xml:space="preserve" height="216.65469248070565" width="218.82317065671958" class="icon-icon-0" data-fill-palette-color="accent" id="icon-0"><g fill="#278d81" data-fill-palette-color="accent"><path fill="#ffffff" d="M70.5 40.6L66.2 36.8C66.1 36.7 66.1 36.6 66 36.5L63.7 21.7C63.5 20.4 62.4 19.4 61 19.4H56.5C56.4 19.4 56.2 19.3 56.1 19.2A7.24 7.24 0 0 0 50.8 16.9C48.9 16.9 47.1 17.7 45.8 18.9 45.7 19 45.6 19 45.6 19L33.7 21.2C33.6 21.2 33.5 21.2 33.3 21.1L28 17.9C26.9 17.2 25.4 17.3 24.5 18.3 23.3 19.6 23.6 21.6 25 22.4L31.5 26.4C31.9 26.7 32.4 26.8 32.9 26.8H33.4L43 25C43.3 24.9 43.6 25.2 43.6 25.5V68.2C43.6 69.7 44.7 71 46.2 71 47.8 71.1 49 69.8 49 68.3V48.3C49 48 49.3 47.7 49.6 47.8 50 47.9 50.4 47.9 50.8 47.9S51.6 47.9 52 47.8C52.3 47.7 52.6 48 52.6 48.3V68.3C52.6 69.8 53.7 71.1 55.2 71.1 56.8 71.2 58 69.9 58 68.4V25.3C58 25 58.2 24.8 58.5 24.8H58.3C58.5 24.8 58.8 25 58.8 25.2L60.8 38.4C60.9 39 61.2 39.6 61.7 40L67 44.7C67.5 45.2 68.2 45.4 68.8 45.4 69.6 45.4 70.4 45.1 70.9 44.4 71.9 43.3 71.6 41.6 70.5 40.6" data-fill-palette-color="accent"></path><circle fill="#ffffff" cx="50.8" cy="6.9" r="6.1" data-fill-palette-color="accent"></circle><g fill="#278d81" data-fill-palette-color="accent"><path fill="#ffffff" d="M15.2 49.7H2.3C1.3 49.7 0.5 48.9 0.5 47.9V35C0.5 34 1.3 33.2 2.3 33.2H15.2C16.2 33.2 17 34 17 35V47.9C17 48.9 16.2 49.7 15.2 49.7M4.7 46.1H12.8C13.1 46.1 13.4 45.8 13.4 45.5V37.4C13.4 37.1 13.1 36.8 12.8 36.8H4.7C4.4 36.8 4.1 37.1 4.1 37.4V45.5C4.1 45.9 4.4 46.1 4.7 46.1" data-fill-palette-color="accent"></path></g><g fill="#278d81" data-fill-palette-color="accent"><path fill="#ffffff" d="M15.2 69.2H2.3C1.3 69.2 0.5 68.4 0.5 67.4V54.4C0.5 53.4 1.3 52.6 2.3 52.6H15.2C16.2 52.6 17 53.4 17 54.4V67.3C17 68.4 16.2 69.2 15.2 69.2M4.7 65.6H12.8C13.1 65.6 13.4 65.3 13.4 65V56.9C13.4 56.6 13.1 56.3 12.8 56.3H4.7C4.4 56.3 4.1 56.6 4.1 56.9V65C4.1 65.3 4.4 65.6 4.7 65.6" data-fill-palette-color="accent"></path></g><path fill="#ffffff" d="M21.1 16C20.5 15.4 19.4 15.4 18.7 15.9L17.4 16.8C17.2 16.9 17 16.8 17 16.6V15.6C17 14.6 16.2 13.8 15.2 13.8H2.3C1.3 13.8 0.5 14.6 0.5 15.6V28.5C0.5 29.5 1.3 30.3 2.3 30.3H15.2C16.2 30.3 17 29.5 17 28.5V21.7C17 21.6 17 21.5 17.1 21.5L20.9 18.8C21.8 18.1 22 16.8 21.1 16M13.4 26.1C13.4 26.4 13.1 26.7 12.8 26.7H4.7C4.4 26.7 4.1 26.4 4.1 26.1V18C4.1 17.7 4.4 17.4 4.7 17.4H12.8C13.1 17.4 13.4 17.7 13.4 18V19.6C13.4 19.7 13.4 19.8 13.3 19.8L10.5 21.8C10.4 21.9 10.2 21.9 10.1 21.7L9.3 20.5C8.8 19.7 7.7 19.4 6.9 19.9 6 20.4 5.7 21.6 6.3 22.5L8.4 25.5C8.7 25.9 9.1 26.2 9.6 26.2H9.9C10.3 26.2 10.6 26.1 11 25.9L13.1 24.4C13.3 24.3 13.5 24.4 13.5 24.6V26.1z" data-fill-palette-color="accent"></path></g></svg></g></svg></g></svg></g><defs></defs></svg><rect width="395.52" height="131.55895824699508" fill="none" stroke="none" visibility="hidden"></rect></g></svg></g></svg>