<?xml version="1.0" encoding="utf-8"?>
<!-- Generator: Adobe Illustrator 27.5.0, SVG Export Plug-In . SVG Version: 6.00 Build 0)  -->
<svg version="1.1" xmlns="http://www.w3.org/2000/svg" xmlns:xlink="http://www.w3.org/1999/xlink" x="0px" y="0px"
	 viewBox="0 0 750 500" style="enable-background:new 0 0 750 500;" xml:space="preserve">
<g id="BACKGROUND">
	<rect x="-0.002" y="-0.001" style="fill:#F2EFFF;" width="750.004" height="500.002"/>
</g>
<g id="OBJECTS">
	<g>
		<g>
			<g>
				<path style="fill:#CE4257;" d="M495.647,367.023h21.276c-2.872,22.156-8.024,62.433-8.006,66.154
					c0.025,5.158,4.235,14.552,11.113,17.5s10.012,7.596,6.573,9.07c-3.439,1.474-15.963,0.111-17.191-0.872
					c-1.228-0.982-1.095-10.796-10.442-12.761c-9.347-1.965-3.394-7.615-0.214-13.756
					C501.468,427.119,494.188,402.032,495.647,367.023z"/>
				<path style="fill:#1E1B32;" d="M521.052,451.142c-1.664,0.862-5.163,1.316-7.651,0.13c-9.273-4.421-14.645-18.914-14.645-18.914
					c-2.247,4.339-5.871,8.43-4.512,11.152l-0.009-0.005l2.116,13.292c0.901,0.901,1.801,1.801,2.702,2.702l0.372-13.272
					c8.889,2.258,9.008,13.918,10.216,14.884c1.228,0.982,13.927,2.844,16.775,0.417
					C530.719,457.862,527.209,454.091,521.052,451.142z"/>
				<path style="fill:#CE4257;" d="M519.101,460.639c-8.038-8.355-16.716-16.239-13.018-48.003c2.163-18.576,3.46-33.8,4.507-45.827
					l-21.056-3.608c2.009,21.633,6.559,51.807,5.313,60.22c-1.583,10.694-7.676,16.545-3.214,21.048
					c4.462,4.503,9.571,5.377,9.662,12.122c0.091,6.744,0.374,6.544,8.564,8.196C518.05,466.44,527.14,468.995,519.101,460.639z"/>
				<path style="fill:#1E1B32;" d="M516.256,457.663c-1.067-1.143-2.118-2.326-3.122-3.612c-0.001,0-8.719,2.175-9.692-2.617
					c-1.758-8.65-11.316-18.285-11.316-18.285c-1.283,3.421-2.397,6.13-2.02,8.435l-0.001-0.001L490.6,460.2l2.058,0.353
					l2.278-13.297c3.355,2.492,6.291,4.238,6.359,9.335c0.091,6.744,0.374,6.544,8.564,8.196c8.19,1.653,17.28,4.208,9.241-4.148
					c-0.155-0.161-0.312-0.323-0.467-0.484l0.043-1.548c-0.901-0.9-1.801-1.801-2.702-2.702L516.256,457.663z"/>
				<path style="fill:#CE4257;" d="M536.238,273.52c0,0,10.368-4.596,12.216-4.663c1.848-0.067,8.876,1.279,10.966,0.185
					c2.091-1.094,2.204,4.242-5.359,3.494c-5.337-0.528,11.176,13.475,11.075,14.496c-0.101,1.021-2.717,1.699-3.732,1.224
					c-1.015-0.475-3.027-2.686-3.027-2.686s-1.216,2.622-2.03,2.27c-0.815-0.352-3.842-1.964-3.842-1.964s-0.304,1.282-2.459,0.881
					c-2.155-0.401-4.538-1.012-5.064-1.064c-0.526-0.052-7.037-5.09-7.037-5.09L536.238,273.52z"/>
				<path style="fill:#EBEEF1;" d="M528.109,273.099l9.308-1.361c0,0,6.029,8.715-0.071,14.885l-11.192,1.626L528.109,273.099z"/>
				<path style="fill:#EEBD84;" d="M562.876,272.94c0,0-8.818-2.747-9.903-2.198c-1.085,0.549-5.194,2.297-7.542,1.409
					c-2.349-0.888-0.601,2.283,0.977,2.439c1.578,0.156,6.73-0.933,6.73-0.933s2.775,5.099,5.24,6.307l4.889,4.871l3.997-3.214
					l3.627-0.672l-1.665-8.737L562.876,272.94z"/>
				<path style="fill:#EEBD84;" d="M542.336,285.118c0,0,2.802-2.436,4.067-1.954c1.264,0.482-0.52,2.701-0.52,2.701
					s3.052-2.406,3.647-1.472c0.595,0.933-0.703,2.121-0.703,2.121s4.451-2.749,5.194-2.051c0.743,0.698-0.483,1.957-0.483,1.957
					s2.932-2.994,3.31-2.254s-3.775,4.826-4.288,4.963s-0.526-0.364-0.526-0.364s-3.32,1.358-3.841,0.932
					c-0.52-0.426-0.088-1.633-0.088-1.633s-2.442,1.32-3.104,1.067c-0.662-0.253-0.064-1.88-0.064-1.88
					S541.722,288.806,542.336,285.118z"/>
				<path style="fill:#EBEEF1;" d="M578.466,281.175l-10.922,3.581c0,0-9.078-9.234-3.021-17.935l13.134-4.293L578.466,281.175z"/>
				<path style="fill:#1E1B32;" d="M631.239,429.282c0,0-2.819,7.621-16.555,10.322c-13.736,2.701-20.74,4.926-9.245,9.983
					c7.223,3.178,34.603,4.839,37.832-1.131c3.229-5.97-0.75-16.499-0.75-16.499S636.144,430.445,631.239,429.282z"/>
				<path style="fill:#1E1B32;" d="M686.426,430.294c0,0,4.125,7.001-2.463,19.353c-6.588,12.352-9.29,19.186,1.894,13.474
					c7.028-3.589,25.619-23.758,23.034-30.033s-13.26-9.846-13.26-9.846s1.252,4.121-1.089,6.868
					C692.2,432.856,690.428,427.228,686.426,430.294z"/>
				<g>
					<g>
						<path style="fill:#2D1856;" d="M625.709,285.069c-2.246,30.01-2.748,54.496-2.788,71.393
							c-0.079,33.891,1.615,76.177,1.625,76.578l0,0l20.238,2.971l12.169-98.722l-8.392-48.127
							C640.945,287.798,633.327,286.434,625.709,285.069z"/>
					</g>
				</g>
				<g>
					<g>
						<path style="fill:#2D1856;" d="M671.997,353.019c0,0,19.911,43.158,32.882,73.448l-20.847,11.087l-32.866-67.941
							L671.997,353.019z"/>
					</g>
				</g>
				<path style="fill:#2D1856;" d="M680.292,300.634c-0.808,23.941-1.617,47.882-2.425,71.824l-26.9-2.865
					c-5.979-22.019-11.816-53.935-8.804-81.063l20.079,1.987C668.259,293.889,674.276,297.262,680.292,300.634z"/>
				<g>
					<path style="fill:#1E1B32;" d="M652.456,372.925c-0.196-0.019-0.373-0.144-0.451-0.34c-7.755-19.588-9.5-47.479-9.643-49.998
						l-5.071-6.113c-0.191-0.23-0.159-0.572,0.071-0.763c0.231-0.19,0.573-0.159,0.763,0.071l5.186,6.251
						c0.075,0.09,0.118,0.202,0.124,0.319c0.015,0.294,1.558,29.576,9.578,49.834c0.11,0.279-0.026,0.593-0.304,0.703
						C652.625,372.922,652.539,372.933,652.456,372.925z"/>
				</g>
				<path style="fill-rule:evenodd;clip-rule:evenodd;fill:#C290FF;" d="M460.024,210.581c-2.973-2.338-3.295-6.808-2.458-10.498
					c0.836-3.69,3.847-5.98,6.748-8.41c3.07-2.57,3.252-5.838,2.256-7.618c-1.453-2.601-1.579-5.734,0.007-8.255
					c1.587-2.523,4.491-4.012,7.438-3.581c3.055,0.444,4.941-0.751,6.515-3.459c3.032-5.216,9.884-6.479,15.184-3.593
					c2.309,1.257,5.037,0.889,7.563,0.157c3.329-0.966,6.92,0.313,9.429,2.707c2.509,2.394,3.854,5.897,3.147,9.292
					c-0.549,2.637,0.764,5.186,3.277,6.158c2.512,0.972,4.252,3.302,4.783,5.944c0.531,2.642-0.339,5.304-2.111,7.333
					c-1.671,1.912-1.728,3.688-0.746,5.317c1.234,2.047,0.328,3.762-2.396,4.956c0.922,1.173,1.302,2.685,1.045,4.155
					c-0.256,1.469-1.126,2.764-2.392,3.553c-1.209,0.751-2.053,1.975-2.319,3.374c-0.264,1.399,0.184,2.768,0.919,3.989
					c2.817,4.683,2.063,10.836-1.853,14.649c-1.638,1.595-4.02,2.176-6.296,1.963c-2.277-0.214-4.259-1.433-5.82-3.104
					c-3.076-3.293-8.249-3.818-11.94-1.233c-3.46,2.423-8.046,1.889-10.857-1.264c-1.882-2.112-4.86-1.782-7.439-0.622
					c-2.614,1.174-5.693-0.518-7.3-2.89c-1.608-2.372-1.51-5.428,0.021-7.85c1.245-1.972,1.329-4.468,0.473-6.638
					C464.045,212.941,461.858,212.022,460.024,210.581z"/>
				<path style="fill:#CE4257;" d="M494.309,198.021l1.904,12.375c0,0,7.496,6.425,9.281,4.76c1.785-1.666,0-16.055,0-16.055
					L494.309,198.021z"/>
				<path style="fill:#1E1B32;" d="M506.02,208.281c-1.109-0.139-7.365-1.028-10.398-6.188c-0.744-1.266-1.142-2.53-1.352-3.638
					c-0.009-0.097-0.051-0.647,0.354-1.113c0.35-0.403,0.803-0.479,0.921-0.494l11.175,1.829L506.02,208.281z"/>
				<path style="fill:#CE4257;" d="M503.063,201.672L503.063,201.672c6.821,0.12,12.533-5.17,12.818-10.738l0.594-13.14
					c0.358-6.978-4.885-12.982-11.847-13.568l0,0c-7.128-0.6-14.642,4.585-15.243,11.713l-0.362,10.573
					C488.742,194.69,494.909,200.985,503.063,201.672z"/>
				<path style="fill:#CE4257;" d="M482.676,184.125c-0.246,2.922,1.923,5.49,4.845,5.736c2.922,0.246,5.49-1.923,5.737-4.845
					c0.246-2.922-1.923-5.491-4.845-5.737C485.491,179.034,482.922,181.203,482.676,184.125z"/>
				
					<path style="fill:none;stroke:#201D2D;stroke-width:0.8478;stroke-linecap:round;stroke-linejoin:round;stroke-miterlimit:10;" d="
					M489.683,186.3c0,0,0.323-3.836-3.396-3.541"/>
				<path style="fill:#C290FF;" d="M519.384,170.89c-2.247-6.072-10.802-9.706-17.269-10.001c-3.599-0.164-5.285,0.412-6.685,1.049
					c-0.664,0.302-0.87,1.014-0.804,1.918c-2.455,0.337-5.564,1.914-7.479,7.19c-3.546,9.765,5.707,9.769,5.707,9.769
					s4.511-3.075,5.68-9.387c3.607-0.128,18.582-0.015,17.745,10.727C516.278,182.155,522.13,178.312,519.384,170.89z"/>
				<path style="fill:#1E1B32;" d="M507.749,183.687c-0.48,0-0.869,0.628-0.869,1.404c0,0.775,0.389,1.404,0.869,1.404
					c0.48,0,0.869-0.628,0.869-1.404C508.617,184.316,508.228,183.687,507.749,183.687z"/>
				<ellipse style="fill:#1E1B32;" cx="516.187" cy="185.091" rx="0.869" ry="1.404"/>
				<path style="fill:#B0384A;" d="M513.696,185.172c0.155,0.964,0.491,2.803,0.999,4.356c0,0,0.721-0.783,0.982-0.084
					s-0.742,1.036-0.742,1.036s-0.954,1.943-2.435,0.51c0,0-1.537-0.322-1.151-1.109c0.386-0.788,0.916,0.123,0.916,0.123
					s-0.393-2.112-0.41-4.675c-0.003-0.445,0.303-0.842,0.739-0.93c0.01-0.002,0.019-0.004,0.029-0.006
					C513.131,184.296,513.614,184.662,513.696,185.172z"/>
				<path style="fill:#1E1B32;" d="M509.148,180.068c0,0-3.459-2.406-5.464,0.852c0,0-1.203-1.454,0.952-2.707
					C506.792,176.96,509.95,177.26,509.148,180.068z"/>
				<path style="fill:#1E1B32;" d="M513.093,179.982c0,0,3.459-2.406,5.464,0.852c0,0,1.203-1.454-0.952-2.707
					C515.449,176.874,512.291,177.174,513.093,179.982z"/>
				<path style="fill:#1E1B32;" d="M482.224,274.016c5.439,0.678,11.126,1.254,17.045,1.693c8.101,0.6,15.824,0.883,23.119,0.93
					c0.66-5.052,0.366-9.038,0-11.679c-1.12-8.074-3.974-11.155-2.485-16.898c0.823-3.175,1.998-3.401,2.485-6.709
					c0.407-2.766-0.064-4.989-1.922-10.512c0,0-6.442-19.184-11.995-21.368c-0.786-0.309-1.231-0.954-1.44-1.798
					c-0.237,1.408-1.927,3.222-1.927,3.222s-8.688-4.376-10.932-4.936c-2.353,0.43-5.613,1.406-8.383,3.911
					c-6.188,5.599-5.522,14.856-4.63,35.534C481.42,251.464,481.825,261.383,482.224,274.016z"/>
				<polygon style="fill:#562B94;" points="491.054,207.998 494.285,205.545 505.104,210.897 501.986,215.786 				"/>
				<polygon style="fill:#562B94;" points="505.104,210.897 507.031,207.675 509.609,209.742 509.301,214.67 				"/>
				<path style="fill:#562B94;" d="M519.647,279.25c-1.338-2.175-2.063-5.216-2.401-8.561c-11.365,3.671-26.446,1.218-34.729-0.665
					c-0.562,3.21-1.487,6.568-2.877,10.052c-14.664,36.755-6.804,55.423-7.295,68.442c-0.347,9.2-1.728,22.823-3.115,41.288
					l-0.376,5.211c0.236,0.169,0.504,0.316,0.816,0.425c7.105,2.468,14.493,3.775,21.897,3.971c0.519,0.014,0.964-0.369,1.038-0.883
					c0.925-6.454,4.548-28.86,4.548-28.488c0,0.366-0.113,21.984,0.704,28.313c0.069,0.536,0.547,0.927,1.086,0.888
					c8.029-0.587,15.973-2.474,23.493-5.606l0.68-5.35c2.243-17.577,4.309-33.3,4.309-33.3
					C530.373,319.125,532.993,300.948,519.647,279.25z"/>
				<path style="fill:#1E1B32;" d="M527.862,290.389c2.846-3.343,5.742-8.891,4.287-16.852c-5.261-1.637-10.686-3.045-15.876-3.672
					l-10.344-43.945l-16.792-17.721c0,0-10.49,7.001-4.295,20.949c6.195,13.948,13.672,52.425,20.285,56.938
					C507.938,288.005,517.445,289.327,527.862,290.389z"/>
				<path style="fill:none;stroke:#000000;stroke-width:0.7193;stroke-miterlimit:10;" d="M503.354,329.927
					c0,0-8.652,66.79-11.786,69.487c0,0-17.257-0.848-22.714-4.396"/>
				<path style="fill:none;stroke:#000000;stroke-width:0.7193;stroke-miterlimit:10;" d="M522.437,393.638
					c0,0-17.625,6.933-24.579,4.718"/>
				<g>
					<path style="fill:#4B2676;" d="M571.742,284.05c15.843-2.552,43.874-4.437,56.378-8.875
						c12.504-4.438,4.663-10.601,4.314-16.364c0.734-0.172,0,0,0,0c-0.349-5.763-8.495-10.421-13.321-9.558
						c-16.991,7.267-35.007,9.387-52.57,14.328C568.394,270.389,569.268,277.324,571.742,284.05z"/>
					<path style="fill:#4B2676;" d="M627.463,271.66c12.747-17.206,23.672-35.588,35.604-53.282
						c-5.037-2.244-14.585-6.559-18.775-8.252c-7.39-2.986-16.923-2.892-20.369,3.176c-8.162,14.371-12.925,28.376-20.467,42.765
						c-2.895,5.524,3.037,12.062,7.623,15.169c-0.203,0.052,0,0,0,0C615.442,274.192,623.602,276.872,627.463,271.66z"/>
					<path style="fill:#4B2676;" d="M676.015,207.861c-13.527-2.108-29.268,0.645-43.176,0.828c-0.128,1.595-0.584,2.82-1.644,3.814
						c-3.204,3.005-6.533,5.672-9.933,8.399c0.611,27.435,2.462,53.776,2.086,81.541c10.204,2.362,19.749,4.28,30.463,4.358
						c9.215,0.067,19.154-1.717,28.356-4.157c1.793-24.417,5.182-52.703,6.459-75.974
						C689.267,214.993,685.979,209.414,676.015,207.861z"/>
					<path style="fill:#FFFFFF;" d="M647.266,207.333c-0.172,1.356-0.897,2.668-1.94,3.604c-0.932,0.837-1.963,1.494-3.051,2.037
						c3.225,17.932,8.3,35.54,11.536,53.486c4.448-19.65,8.43-39.405,12.742-59.085C660.231,207.337,653.67,206.988,647.266,207.333
						z"/>
					<path style="fill:#1E1B32;" d="M661.754,208.2c-5.64,0.065-11.289,0.078-16.927,0.249c2.546,4.705,5.276,9.312,8.064,13.878
						C655.821,217.602,658.788,212.902,661.754,208.2z"/>
					<path style="fill:#1E1B32;" d="M653.074,209.225c-1.37,16.384-1.661,32.814-2.756,49.212c1.413,3.376,2.74,6.775,4.081,10.171
						c1.731-4.875,3.446-9.752,5.113-14.642C657.592,239.029,654.899,224.169,653.074,209.225z"/>
					<path style="fill:#2D1856;" d="M664.62,207.513c-3.771,20.348-7.098,40.776-10.982,61.102
						c4.62-10.207,9.101-20.476,13.712-30.686c-1.004-2.927-2.065-5.837-3.144-8.737c2.62-3.291,5.252-6.572,7.883-9.853
						C672.197,213.687,671.594,206.786,664.62,207.513z"/>
					<path style="fill:#2D1856;" d="M644.567,207.782c1.812,20.383,6.636,40.513,9.174,60.835
						c-3.93-10.2-8.018-20.319-12.653-30.222c1.056-2.876,2.093-5.758,3.172-8.626c-2.63-3.058-5.288-6.093-7.91-9.158
						C636.415,214.669,637.4,207.51,644.567,207.782z"/>
					<path style="fill:#2D1856;" d="M665.702,268.432c2.366,5.887,4.691,11.791,7.025,17.691c-0.913,0.447-1.825,0.895-2.737,1.344
						c-2.159-5.933-4.318-11.866-6.51-17.786C664.221,269.264,664.961,268.848,665.702,268.432z"/>
					<path style="fill:#1E1B32;" d="M648.658,204.195c1.198-3.356,1.813-6.653,1.784-10.221c4.881-1.805,9.676-2.935,14.885-3.161
						c-0.561,2.504-0.698,4.877-0.419,7.428C660.185,202.474,655.012,204.433,648.658,204.195z"/>
					<path style="fill:#EEBD84;" d="M664.909,198.24c0.438,2.715,1.403,5.142,2.64,7.57c-4.04,0.64-9.958,1.76-13.538,2.384
						c-3.58,0.624-4.838,0.654-7.957,1.282c1.071-1.724,1.845-3.452,2.605-5.282C655.011,204.434,660.184,202.474,664.909,198.24z"
						/>
					<path style="fill:#E5E5E6;" d="M671.717,202.973c-2.961,0.943-5.899,1.818-8.895,2.682c-2.996,0.864-6.04,1.75-9.05,2.6
						c1.991,2.773,4.004,5.526,6.034,8.27c4.638-3.206,9.301-6.373,13.977-9.522C673.095,205.66,672.399,204.321,671.717,202.973z"
						/>
					<path style="fill:#EEBD84;" d="M661.361,197.985c-1.656,0.947-4.508,2.486-6.346,3.22c-6.73,2.688-12.14-0.292-12.777-7.702
						c-0.354-4.113-0.136-10.926,0.075-14.749c0.413-7.46,5.145-13.511,12.46-12.936c0.165-0.424,0,0,0,0
						c7.314,0.575,11.582,5.277,12.355,12.403c0.292,2.694,0.173,7.324,0.137,10.195
						C667.208,192.889,665.229,195.774,661.361,197.985z"/>
					<g>
						<path style="fill:#1E1B32;" d="M666.154,191.749c1.757-1.645,3.02-3.568,3.456-5.92s0.656-4.617,0.443-6.944
							c-0.378-4.134-0.583-8.121-3.326-11.47c-3.426-4.183-8.003-6.051-13.367-6.161c-5.364-0.11-9.869,2.304-14.663,4.364
							c-0.505,3.487-0.069,6.593,2.595,8.992c1.929,1.737,4.005,1.883,6.444,1.575c2.439-0.308,4.451-1.911,6.617-2.971
							c2.44,1.175,4.857,2.432,7.236,3.716c0.116,2.734-0.241,5.308,0.367,8.041C662.565,187.704,664.148,189.801,666.154,191.749z"
							/>
					</g>
					<path style="fill:#EEBD84;" d="M671.517,187.044c-0.153,1.765-0.803,3.278-2.222,4.434c-1.419,1.155-3.102,1.453-4.908,1.328
						c-0.504-1.678-0.975-3.304-0.621-5.066c0.354-1.762,1.335-3.311,3.044-3.984c1.71-0.672,3.496-0.029,4.386,1.525
						C671.508,185.827,671.57,186.423,671.517,187.044z"/>
					<path style="fill:#E5E5E6;" d="M651.518,208.548c-2.108-1.4-4.195-2.846-6.244-4.332c-1.38,0.656-2.769,1.288-4.103,2.034
						c1.526,3.251,3.012,6.504,4.612,9.722C647.684,213.489,649.589,211.01,651.518,208.548z"/>
					<path style="fill:none;stroke:#000000;stroke-width:0.6124;stroke-miterlimit:10;" d="M626.137,233.882
						c-0.049,22.902-3.213,45.667-2.777,68.548c19.324,5.892,39.352,5.247,58.774,0.339"/>
					<path style="fill:none;stroke:#000000;stroke-width:0.6124;stroke-miterlimit:10;" d="M665.702,268.432
						c2.366,5.887,4.691,11.791,7.025,17.691"/>
				</g>
				<path style="fill:none;stroke:#000000;stroke-width:0.7193;stroke-miterlimit:10;" d="M507.922,397.602
					c0,0-3.575,31.775-2.979,34.952"/>
				
					<line style="fill:none;stroke:#000000;stroke-width:0.6124;stroke-miterlimit:10;" x1="566.543" y1="263.581" x2="571.742" y2="284.05"/>
				<path style="fill:#4B2676;" d="M687.851,213.429c-0.866-1.728-2.066-2.736-3.406-3.215l0.005-0.09l-4.118-1.232
					c-1.825-0.547-3.725,0.596-4.097,2.464l-6.459,32.372c4.149,5.388,7.908,11.22,11.939,16.69l0.394-7.242
					c0.709,2.573,1.863,6.551,3.504,11.356c3.433,10.054,5.075,12.236,4.556,15.449c-0.484,2.994-3.048,8.145-16.573,12.808
					c1.101,4.402,2.201,8.805,3.302,13.207c3.94-0.648,11.953-2.539,19.187-8.945c0,0,7.757-4.568,9.523-13.305
					C710.262,260.71,687.851,213.429,687.851,213.429z"/>
				<path style="fill:none;stroke:#000000;stroke-width:0.6124;stroke-miterlimit:10;" d="M678.301,242.335
					c0,0,11.553,31.573,12.317,36.661"/>
				
					<path style="fill:none;stroke:#201D2D;stroke-width:0.8478;stroke-linecap:round;stroke-linejoin:round;stroke-miterlimit:10;" d="
					M669.864,188.7c0,0,0.323-3.836-3.396-3.541"/>
				<path style="fill:#1E1B32;" d="M652.9,183.79c0.48,0,0.869,0.628,0.869,1.404c0,0.775-0.389,1.404-0.869,1.404
					c-0.48,0-0.869-0.628-0.869-1.404C652.031,184.419,652.42,183.79,652.9,183.79z"/>
				<path style="fill:#1E1B32;" d="M644.462,183.79c0.48,0,0.869,0.628,0.869,1.404c0,0.775-0.389,1.404-0.869,1.404
					c-0.48,0-0.869-0.628-0.869-1.404C643.593,184.419,643.982,183.79,644.462,183.79z"/>
				<path style="fill:#D7A972;" d="M646.953,185.275c-0.155,0.964-0.491,2.803-0.999,4.356c0,0-0.721-0.783-0.982-0.084
					s0.742,1.036,0.742,1.036s0.954,1.943,2.435,0.51c0,0,1.537-0.322,1.151-1.109c-0.386-0.787-0.916,0.123-0.916,0.123
					s0.393-2.112,0.41-4.675c0.003-0.445-0.303-0.842-0.739-0.93c-0.009-0.002-0.019-0.004-0.029-0.006
					C647.518,184.399,647.035,184.765,646.953,185.275z"/>
				<path style="fill:#1E1B32;" d="M651.501,180.171c0,0,3.459-2.406,5.464,0.852c0,0,1.203-1.454-0.952-2.707
					C653.857,177.063,650.699,177.364,651.501,180.171z"/>
				<path style="fill:#1E1B32;" d="M647.556,180.085c0,0-3.459-2.406-5.464,0.852c0,0-1.203-1.454,0.952-2.707
					C645.2,176.977,648.358,177.278,647.556,180.085z"/>
			</g>
			<g>
				<path style="fill:#1E1B32;" d="M503.231,189.596c1.069-1.02,2.648,1.931,6.569,2.653c2.461,0.453,3.631-0.283,3.965,1.071
					c0.355,1.44-1.651,4.078-5.728,3.139C503.944,195.515,501.328,191.412,503.231,189.596z"/>
				<path style="fill:#FFFFFF;" d="M509.8,192.249c-2.762-0.508-4.359-2.118-5.437-2.671c0.835,1.549,2.659,3.061,4.945,3.588
					c1.793,0.413,3.185,0.134,4.152-0.431C512.911,192.215,511.77,192.612,509.8,192.249z"/>
			</g>
			<path style="fill:#FFFFFF;" d="M644.087,194.27c0,0,6.349-1.16,10.951-4.074c0,0,0.534,4.832-3.832,6.456
				C648.49,197.662,645.805,197.104,644.087,194.27z"/>
		</g>
		<g>
			<g>
				<g>
					<path style="fill-rule:evenodd;clip-rule:evenodd;fill:#C290FF;" d="M113.961,214.72c3.404-1.427,4.869-5.549,5.039-9.238
						c0.172-3.689-2.066-6.625-4.164-9.664c-2.22-3.215-1.543-6.336-0.144-7.752c2.043-2.069,2.975-4.984,2.138-7.768
						c-0.837-2.786-3.182-4.941-6.067-5.301c-2.99-0.376-4.453-1.99-5.231-4.946c-1.497-5.694-7.616-8.663-13.35-7.324
						c-2.499,0.583-4.97-0.472-7.156-1.817c-2.881-1.774-6.591-1.503-9.574,0.098c-2.982,1.6-5.157,4.546-5.374,7.923
						c-0.168,2.624-2.066,4.68-4.682,4.942c-2.616,0.262-4.858,2.002-6.043,4.349c-1.185,2.347-1.059,5.078,0.081,7.446
						c1.075,2.233,0.668,3.919-0.679,5.195c-1.693,1.605-1.286,3.453,0.967,5.285c-1.172,0.864-1.923,2.188-2.062,3.637
						c-0.141,1.449,0.341,2.892,1.328,3.963c0.943,1.021,1.418,2.391,1.305,3.777c-0.115,1.385-0.892,2.557-1.901,3.514
						c-3.867,3.673-4.755,9.658-2.062,14.262c1.126,1.926,3.217,3.092,5.413,3.482c2.198,0.39,4.379-0.242,6.281-1.408
						c3.749-2.299,8.752-1.449,11.553,1.941c2.626,3.178,7.078,3.867,10.541,1.631c2.319-1.498,5.035-0.414,7.16,1.347
						c2.154,1.784,5.49,0.992,7.618-0.823c2.129-1.814,2.831-4.714,2.02-7.39c-0.659-2.178-0.09-4.549,1.279-6.368
						C109.566,215.895,111.862,215.6,113.961,214.72z"/>
					<path style="fill:#CE4257;" d="M78.351,198.227l1.858,12.077c0,0,7.316,6.271,9.058,4.645c1.742-1.626,0-15.669,0-15.669
						L78.351,198.227z"/>
					<path style="fill:#1E1B32;" d="M89.78,208.239c-1.082-0.136-7.188-1.004-10.148-6.039c-0.726-1.235-1.114-2.469-1.319-3.55
						c-0.009-0.094-0.049-0.631,0.346-1.087c0.341-0.393,0.784-0.467,0.898-0.482l10.906,1.785L89.78,208.239z"/>
					<path style="fill:#CE4257;" d="M86.894,201.789L86.894,201.789c6.657,0.117,12.232-5.045,12.51-10.479l0.579-12.824
						c0.349-6.81-4.767-12.669-11.562-13.242l0,0c-6.956-0.586-14.29,4.475-14.876,11.431l-0.354,10.319
						C72.918,194.975,78.937,201.119,86.894,201.789z"/>
					<g>
						<path style="fill:#CE4257;" d="M66.998,184.665c-0.24,2.852,1.877,5.358,4.728,5.599c2.852,0.24,5.358-1.877,5.599-4.728
							c0.24-2.852-1.877-5.358-4.728-5.599C69.745,179.696,67.238,181.813,66.998,184.665z"/>
						
							<path style="fill:none;stroke:#201D2D;stroke-width:0.8274;stroke-linecap:round;stroke-linejoin:round;stroke-miterlimit:10;" d="
							M73.837,186.787c0,0,0.315-3.743-3.314-3.456"/>
					</g>
					<path style="fill:#C290FF;" d="M102.823,171.748c-2.193-5.925-10.542-9.472-16.854-9.76c-3.513-0.16-5.158,0.402-6.524,1.023
						c-0.648,0.295-0.849,0.99-0.785,1.872c-2.396,0.329-5.43,1.868-7.299,7.017c-3.46,9.53,5.569,9.534,5.569,9.534
						s4.402-3.001,5.543-9.161c3.52-0.124,18.135-0.014,17.318,10.469C99.791,182.742,105.503,178.991,102.823,171.748z"/>
					<g>
						<path style="fill:#1E1B32;" d="M86.941,184.237c-0.468,0-0.848,0.613-0.848,1.37c0,0.757,0.38,1.37,0.848,1.37
							c0.468,0,0.848-0.613,0.848-1.37C87.789,184.851,87.409,184.237,86.941,184.237z"/>
						<path style="fill:#1E1B32;" d="M95.176,184.237c-0.468,0-0.848,0.613-0.848,1.37c0,0.757,0.38,1.37,0.848,1.37
							c0.468,0,0.848-0.613,0.848-1.37C96.024,184.851,95.645,184.237,95.176,184.237z"/>
						<path style="fill:#B0384A;" d="M92.745,185.686c0.152,0.941,0.479,2.735,0.975,4.251c0,0,0.704-0.764,0.959-0.082
							c0.255,0.682-0.724,1.011-0.724,1.011s-0.931,1.896-2.376,0.497c0,0-1.5-0.314-1.124-1.083c0.377-0.769,0.894,0.12,0.894,0.12
							s-0.384-2.061-0.4-4.563c-0.003-0.434,0.296-0.822,0.721-0.908c0.009-0.002,0.019-0.004,0.028-0.005
							C92.193,184.831,92.665,185.188,92.745,185.686z"/>
						<path style="fill:#1E1B32;" d="M88.307,180.705c0,0-3.376-2.348-5.333,0.832c0,0-1.174-1.419,0.93-2.642
							C86.007,177.672,89.09,177.965,88.307,180.705z"/>
						<path style="fill:#1E1B32;" d="M92.157,180.621c0,0,3.376-2.348,5.333,0.832c0,0,1.174-1.419-0.93-2.642
							C94.456,177.588,91.374,177.881,92.157,180.621z"/>
					</g>
					<path style="fill:#CE4257;" d="M123.045,248.914c3.738-6.78,10.765-19.225,17.149-28.878
						c9.243-13.978,10.596-6.032,16.458-10.061c0,0,1.127,2.847-5.073,4.313c0,0,13.527,0,15.782-2.142
						c2.254-2.142,2.705-1.353,1.353,1.24c-1.259,2.413-5.738,7.07-19.524,8.069c-1.994,0.145-3.731,1.421-4.468,3.279
						c-2.815,7.101-9.971,24.626-15.856,34.649C126.677,256.033,124.567,252.558,123.045,248.914z"/>
					<path style="fill:#1E1B32;" d="M127.136,241.608c-2.165,3.807-3.983,7.098-5.189,9.306c-0.673,1.231-2.482,1.102-2.969-0.214
						c-2.223-6.019-6.118-18.662-12.602-29.65c-8.116-13.753-13.704-11.412-13.704-11.412l12.447,40.815
						c0,0,7.362,18.171,17.489,16.251c2.856-0.542,7.669-9.215,12.185-18.812C130.685,247.383,128.361,244.2,127.136,241.608z"/>
					<path style="fill:#CE4257;" d="M87.754,358.429h19.528c-2.636,20.336-7.365,57.303-7.348,60.718
						c0.023,4.735,3.887,13.357,10.2,16.062c6.313,2.705,9.189,6.972,6.033,8.324c-3.156,1.353-14.652,0.101-15.779-0.8
						c-1.127-0.902-1.005-9.909-9.584-11.712c-8.579-1.804-3.115-6.989-0.197-12.625C93.096,413.588,86.414,390.561,87.754,358.429z
						"/>
					<path style="fill:#CE4257;" d="M91.268,445.172c-7.378-7.669-15.343-14.904-11.949-44.059
						c1.985-17.05,3.175-31.023,4.137-42.062L64.13,355.74c1.844,19.856,6.02,47.55,4.877,55.272
						c-1.453,9.815-7.045,15.186-2.95,19.319c4.095,4.133,8.785,4.936,8.868,11.126c0.083,6.19,0.343,6.006,7.86,7.523
						C90.303,450.496,98.646,452.841,91.268,445.172z"/>
					<path style="fill:#1E1B32;" d="M66.557,272.393c8.487,1.038,24.322,2.69,34.655,2.034c-3.186-7.159-1.273-21.11-0.434-26.139
						c0.176-1.057,0.8-1.996,1.73-2.527c6.061-3.463,4.53-11.293,1.37-15.505c-3.382-4.509-5.975-18.6-11.707-20.854
						c-0.767-0.302-1.202-0.931-1.406-1.754c-0.232,1.374-1.88,3.145-1.88,3.145s-8.479-4.271-10.669-4.817
						c-0.154,0.281-0.312,0.527-0.474,0.721c-2.255,2.705-10.822,0.902-10.822,0.902l-7.556,26.003
						C59.365,233.601,73.373,249.658,66.557,272.393z"/>
					<polygon style="fill:#562B94;" points="75.175,207.963 78.328,205.569 88.887,210.792 85.843,215.564 					"/>
					<polygon style="fill:#562B94;" points="88.887,210.792 90.767,207.648 93.283,209.665 92.982,214.475 					"/>
					<path style="fill:#562B94;" d="M101.867,275.685c-1.228-1.996-1.894-4.787-2.204-7.857c-10.431,3.369-24.273,1.118-31.876-0.61
						c-0.516,2.946-1.365,6.029-2.641,9.226c-13.459,33.735-6.245,50.87-6.696,62.819c-0.319,8.444-1.586,20.947-2.859,37.896
						l-0.345,4.783c0.217,0.155,0.462,0.29,0.749,0.39c6.521,2.265,13.302,3.465,20.098,3.644c0.477,0.013,0.885-0.338,0.953-0.81
						c0.849-5.924,4.174-26.489,4.174-26.147c0,0.336-0.103,20.178,0.647,25.987c0.064,0.492,0.502,0.851,0.997,0.815
						c7.369-0.539,14.661-2.27,21.562-5.145l0.624-4.911c2.059-16.133,3.955-30.564,3.955-30.564
						C111.711,312.283,114.116,295.6,101.867,275.685z"/>
					<path style="fill:#1E1B32;" d="M42.279,266.323c3.076-0.086,7.325-1.18,10.788-5.672c-1.615-3.508-3.427-6.994-5.535-9.991
						l18.036-26.002l1.353-17.059c0,0-8.567-2.179-12.926,7.59c-4.359,9.77-20.892,31.714-20.14,37.275
						C34.175,254.828,37.946,260.399,42.279,266.323z"/>
					<path style="fill:#1E1B32;" d="M66.508,419.941c0,0,8.773,8.844,10.386,16.783c0.894,4.398,8.895,2.402,8.896,2.402
						c0.922,1.18,1.887,2.266,2.866,3.315l-2.199-13.813l0.008,0.004c-1.247-2.498,2.079-6.254,4.141-10.236
						c0,0,4.931,13.302,13.442,17.36c2.284,1.089,5.496,0.672,7.023-0.119c5.651,2.707,8.872,6.168,4.922,9.533
						c-2.614,2.227-14.27,0.519-15.397-0.383c-1.108-0.887-1.218-11.588-9.377-13.661l-0.381,13.602
						c0.143,0.148,0.286,0.297,0.429,0.445c7.378,7.669-0.965,5.324-8.482,3.807c-7.517-1.517-7.777-1.333-7.86-7.523
						c-0.063-4.678-2.757-6.281-5.837-8.568l-2.091,12.204l-1.889-0.324l-0.454-17.087l0.001,0.001
						C64.308,425.568,65.33,423.081,66.508,419.941z"/>
					<path style="fill:none;stroke:#000000;stroke-width:0.6602;stroke-miterlimit:10;" d="M86.912,322.198
						c0,0-7.941,61.302-10.818,63.778c0,0-15.839-0.778-20.847-4.034"/>
					<path style="fill:none;stroke:#000000;stroke-width:0.6602;stroke-miterlimit:10;" d="M104.427,380.674
						c0,0-16.176,6.364-22.559,4.331"/>
					<g>
						<path style="fill:#CE4257;" d="M70.899,285.826c0.609-0.642-5.377-3.88-5.377-3.88s7.121,3.401,8.004,2.638
							c0.882-0.763-4.993-4.174-4.993-4.174c0,0,4.93,2.383,5.474,1.764c0.149-0.169-0.084-0.507-0.184-0.653
							c-0.927-1.345-5.252-3.512-8.675-5.078c1.911-0.098,5.362-0.366,5.054-1.027c-0.424-0.909-7.813-0.974-7.813-0.974
							s-1.012,0.344-1.393,0.184c-0.193,0.227-0.386,0.454-0.579,0.682c-0.115,0.555-0.336,1.087-0.655,1.572
							c-0.514,0.784-1.194,1.434-1.732,2.198c0.151,0.258,0.324,0.541,0.528,0.847c3.273,4.919,8.621,7.515,8.94,7.203
							c0.138-0.135-0.529-0.939-3.671-3.633C63.826,283.495,70.29,286.468,70.899,285.826z"/>
					</g>
					<path style="fill:#CE4257;" d="M53.068,260.651l7.926,13.975l-2.437,5.299c0,0-13.227-8.396-16.278-13.602L53.068,260.651z"/>
				</g>
				<g>
					<polygon style="fill:#99A5E0;" points="88.799,297.308 181.43,286.988 225.108,293.468 221.027,301.147 173.272,308.346 
						116.397,306.667 					"/>
					<g>
						<path style="fill:#1E1B32;" d="M132.715,266.978c1.393-2.784,4.64-1.392,4.64-1.392l5.313,2.589
							c0.021,0.009,0.032,0.015,0.032,0.015l0.685,0.335l0.298,4.185l5.097,3.622c0.108,0.076,0.193,0.176,0.255,0.295l7.497,14.795
							l2.326,4.803c0.201,0.399,0.041,0.887-0.36,1.088c0,0-0.243,0.089-0.366,0.089l-0.723-0.443l-9.733-19.421l-4.964-3.528
							l-4.276,0.699c0,0-4.02-1.856-4.716-2.551C133.026,271.462,131.325,269.762,132.715,266.978z"/>
						<path style="fill:#1E1B32;" d="M165.734,270.293c0,0-4.02-1.855-4.716-2.551c-0.695-0.695-2.396-2.396-1.006-5.18
							c1.394-2.783,4.64-1.392,4.64-1.392l5.313,2.59c0.02,0.009,0.031,0.014,0.031,0.014l0.685,0.335l0.298,4.185l5.097,3.622
							c0.108,0.077,0.193,0.177,0.255,0.295l7.497,14.795l2.326,4.803c0.201,0.399,0.041,0.889-0.36,1.09
							c0,0-0.243,0.089-0.366,0.089l-0.723-0.444l-9.733-19.421l-4.963-3.527L165.734,270.293z"/>
						<path style="fill:#1E1B32;" d="M152.921,272.25c0,0-4.02-1.855-4.716-2.552c-0.695-0.695-2.396-2.396-1.005-5.179
							c1.393-2.783,4.64-1.392,4.64-1.392l6.029,2.937l0.298,4.185l5.097,3.621c0.108,0.079,0.193,0.177,0.255,0.295l7.497,14.797
							l2.326,4.802c0.201,0.399,0.041,0.889-0.36,1.091c0,0-0.243,0.087-0.366,0.087l-0.723-0.444l-9.733-19.421l-4.963-3.527
							L152.921,272.25z"/>
					</g>
					<polygon style="fill:#99A5E0;" points="230.145,292.987 235.184,287.949 229.425,286.029 131.994,295.389 137.274,297.068 
											"/>
					<polygon style="fill:#62698E;" points="156.953,466.491 119.997,442.013 102.26,309.976 142.074,308.107 158.392,324.425 
						158.392,463.133 					"/>
					<polygon style="fill:#6C75A3;" points="220.307,308.107 202.069,454.013 156.953,466.491 137.274,310.987 					"/>
					<polygon style="fill:#7A84B9;" points="235.184,287.949 235.184,311.466 137.274,321.545 137.274,297.068 					"/>
					<polygon style="fill:#99A5E0;" points="84.959,292.748 90.959,292.748 125.995,300.667 120.236,304.026 93.598,299.227 					
						"/>
					<polygon style="fill:#6C75A3;" points="131.994,295.389 119.996,300.667 84.959,292.748 82.08,303.306 137.274,321.545 
						137.274,297.068 					"/>
					<polygon style="fill:#99A5E0;" points="151.642,332.767 167.3,449.935 195.018,443.816 209.416,325.748 					"/>
				</g>
			</g>
			<path style="fill:#FFFFFF;" d="M83.217,191.227c0,0,5.156,3.883,10.417,5.291c0,0-3.191,3.667-7.344,1.558
				C83.706,196.764,82.297,194.411,83.217,191.227z"/>
		</g>
		<g>
			<g>
				
					<rect x="201.686" y="72.297" transform="matrix(-1 -1.224647e-16 1.224647e-16 -1 561.3527 221.6245)" style="fill:#C290FF;" width="157.981" height="77.031"/>
				<path style="fill:#96303F;" d="M326.399,158.764c1.585,0.462,3.169,0.925,4.754,1.387c0.253-0.326,0.579-0.771,0.928-1.323
					c3.077-4.865,3.263-10.654,2.858-10.814c-0.174-0.069-0.625,0.843-1.775,4.708c0,0,0.079-6.931-0.734-7.218
					c-0.813-0.286-1.317,6.325-1.317,6.325s0.198-7.686-0.831-8.169c-1.029-0.482-1.731,6.1-1.731,6.1c0,0,0.162-5.332-0.604-5.57
					c-0.21-0.065-0.418,0.276-0.508,0.423c-0.829,1.359-1.039,6.067-1.073,9.735c-0.846-1.662-2.455-4.625-2.921-4.089
					c-0.64,0.738,2.236,7.338,2.236,7.338S326.39,158.361,326.399,158.764z"/>
				<path style="fill:#96303F;" d="M235.521,156.728c-1.585,0.462-3.169,0.925-4.754,1.387c-0.253-0.326-0.579-0.771-0.928-1.323
					c-3.077-4.865-3.263-10.654-2.858-10.814c0.174-0.069,0.626,0.843,1.775,4.708c0,0-0.079-6.931,0.734-7.218
					c0.813-0.286,1.317,6.325,1.317,6.325s-0.198-7.686,0.831-8.168c1.029-0.482,1.731,6.1,1.731,6.1c0,0-0.162-5.332,0.604-5.57
					c0.209-0.065,0.418,0.276,0.508,0.423c0.829,1.359,1.04,6.067,1.073,9.735c0.846-1.661,2.455-4.625,2.921-4.089
					c0.64,0.738-2.236,7.338-2.236,7.338S235.531,156.326,235.521,156.728z"/>
				<path style="fill:#2D1856;" d="M314.53,456.042h-10.3c-0.32-0.67-0.66-1.37-1.01-2.12c-6.07-12.82-16.56-37.17-20.97-62.91
					c-1.16-6.78-2.44-14.22-2.31-24.32c0,0,0.09-6.34,3.06-30.06c0.01-0.11,0.03-0.23,0.04-0.35l-17.66,55.71
					c0,0.01,0.01,0.01,0.01,0.02c0.25,0.4,4.28,7.03,5.71,18.09c0.4,3.03,1.32,8.74,2.47,15.5c0,0.01,0,0.01,0,0.02
					c1.42,8.34,3.17,18.28,4.68,26.74c0.23,1.27,0.45,2.49,0.66,3.68H267.3c-0.43-0.69-0.86-1.4-1.3-2.13
					c-7.23-12.07-16-30.35-19.94-53.91c-1.09-6.49-3.65-24.43-0.48-47.47c2.9-21.05,9.41-37.76,14.95-49.13
					c0.1-0.22,0.2-0.43,0.31-0.64v-0.01c0.47-0.95,0.92-1.85,1.37-2.72c9.88-0.49,19.75-0.99,29.63-1.48
					c6.54-0.33,13.08-0.65,19.62-0.98c0,0,0.04,0.33,0.09,0.98c0.05,0.62,0.12,1.52,0.2,2.69v0.03c0,0.01,0,0.01,0,0.02
					s0,0.01,0,0.02c0.7,10.95,1.73,44.67-8.06,85.07c0,0,7.23,10.54,8.48,19.16c0.9,6.14,1.8,32.29,2.25,46.83
					C314.46,453.702,314.5,454.932,314.53,456.042z"/>
				<path style="fill:#1E1B32;" d="M312.274,452.936c1.272-0.275,2.586-0.633,3.781-1.17l5.389,14.725h-50.832
					c0,0,1.759-9.208,12.851-10.791c11.092-1.583,18.782-1.667,18.782-1.667s-0.022-0.05-0.063-0.142
					C305.546,454.051,308.99,453.647,312.274,452.936z"/>
				<path style="fill:#1E1B32;" d="M245.532,455.614c5.741-1.168,14.848-1.787,19.092-2.025c4.509,1.212,9.456,0.853,13.642-1.232
					c0.449-0.223,0.892-0.473,1.322-0.748c0.95,4.187,1.541,6.77,1.541,6.77v7.068h-47.472
					C233.656,465.447,237.846,457.178,245.532,455.614z"/>
				<path style="fill:#A64743;" d="M235.02,181.658c0.012-0.431-0.068-0.85-0.19-1.262c-0.031-0.103-0.195-0.07-0.165,0.034
					c0.118,0.404,0.184,0.82,0.247,1.236C234.921,181.728,235.018,181.72,235.02,181.658z"/>
				<g>
					<path style="fill:#562B94;" d="M311.55,298.552h0.49c-0.09,0.91-0.19,1.82-0.29,2.69v0.03c0,0.01,0,0.01,0,0.02s0,0.01,0,0.02
						c-0.02,0.23-0.05,0.45-0.07,0.68c-0.16,0.11-0.35,0.25-0.58,0.4c-0.18,0.12-0.38,0.25-0.6,0.4c-0.33,0.21-0.71,0.45-1.13,0.71
						c-0.17,0.11-0.35,0.22-0.54,0.33c-0.97,0.58-2.12,1.23-3.44,1.89c-2.57,1.28-5.6,2.5-9.07,3.45
						c-6.01,1.63-11.26,1.83-14.95,1.69c-3.87-0.31-7.29-1-10.31-1.93c-0.03-0.02-0.06-0.03-0.09-0.03
						c-3.51-1.08-6.47-2.47-8.95-3.92c-0.34-0.2-0.67-0.4-1-0.61c-0.03-0.21-0.05-0.43-0.07-0.66v-0.01
						c-0.03-0.31-0.07-0.62-0.11-0.94v-0.01c-0.15-1.38-0.31-2.78-0.5-4.2h31.5c6.54-0.33,13.08-0.65,19.62-0.98
						C311.46,297.572,311.5,297.902,311.55,298.552z"/>
					<path style="fill:#562B94;" d="M312.87,288.912c-0.07,0.9-0.14,1.79-0.22,2.67h-53.32c-0.13-0.88-0.28-1.77-0.43-2.67H312.87z"
						/>
					<path style="fill:#562B94;" d="M313.65,278.012c-0.09,1.32-0.19,2.63-0.27,3.94h-55.72c-0.24-1.3-0.5-2.62-0.76-3.94H313.65z"
						/>
					<path style="fill:#562B94;" d="M314.48,266.132c-0.11,1.62-0.23,3.26-0.35,4.91h-58.69c-0.36-1.63-0.72-3.26-1.1-4.91H314.48z"
						/>
					<path style="fill:#562B94;" d="M328.75,204.352c-0.12,2.71-0.29,2.45-1,5.27c-3.19,12.69-7.78,14.79-10.53,30.79
						c-0.41,2.39-0.78,5.03-1.11,7.85c-0.26,2.22-0.5,4.56-0.73,6.97c-0.12,1.29-0.23,2.6-0.34,3.93h-62.35
						c-0.32-1.31-0.65-2.62-0.98-3.93c-0.58-2.32-1.19-4.65-1.8-6.97c-3.76-14.22-8.05-28.38-12.28-41.4
						c-3.91-12.04-9.29-36.47-10.32-50.76c0.64-0.15,1.28-0.26,1.93-0.34c2.32-0.31,4.74-0.29,7.1-0.44c0.08,0,0.15,0,0.22-0.01
						l1.53-0.13c2.57,8.63,5.12,17.23,7.51,25.9c2.7,5.82,3.58,11.39,3.2,17.84c5.07,8.01,10.72,17.81,16,25.1
						c2.92,4.02,4.91,5.27,9.38,5.45c1.62,0.06,3.32,0.08,5.04,0.06c4.17-0.02,8.55-0.23,12.62-0.44c1.08-0.06,2.13-0.11,3.15-0.16
						c5.16-0.26,7.81-3.55,10.56-7.26c3.83-8.82,7.83-17.51,11.85-26.23c-0.72-13.53,0.65-26.59,6.57-38.95
						c0.47,0.12,0.93,0.24,1.4,0.36c2.28,0.6,4.55,1.19,6.83,1.78c0.3,0.08,0.59,0.15,0.89,0.23
						C335.99,174.522,334.02,189.562,328.75,204.352z"/>
				</g>
				<path style="fill:none;stroke:#000000;stroke-width:0.6432;stroke-miterlimit:10;" d="M311.682,301.991
					c-3.165,2.201-18.865,12.64-37.386,7.915c-6.012-1.534-10.696-4.251-14.018-6.688"/>
				
					<line style="fill:none;stroke:#000000;stroke-width:0.6432;stroke-miterlimit:10;" x1="332.081" y1="158.828" x2="323.974" y2="156.489"/>
				
					<line style="fill:none;stroke:#000000;stroke-width:0.6432;stroke-miterlimit:10;" x1="227.31" y1="156.101" x2="238.093" y2="155.178"/>
				<path style="fill:none;stroke:#000000;stroke-width:0.6432;stroke-miterlimit:10;" d="M286.218,326.506
					c-6.945,21.829-13.89,43.658-20.835,65.487c0.981,2.083,2.352,5.266,3.568,9.282c1.78,5.877,1.889,9.112,3.421,18.081
					c1.084,6.348,1.176,5.58,2.769,14.172c0.851,4.59,1.976,11.014,3.124,18.829"/>
				<g>
					<path style="fill-rule:evenodd;clip-rule:evenodd;fill:#96303F;" d="M278.622,238.013c0.62,4.324,3.712,7.534,7.326,7.354
						c3.417-0.17,6.174-3.326,6.688-7.437c-0.692-7.698-1.272-14.148-1.766-19.633l-10.876,0.235L278.622,238.013z"/>
					<path style="fill-rule:evenodd;clip-rule:evenodd;fill:#1E1B32;" d="M279.994,218.533l10.876-0.235l0.607,6.748
						c-1.499,0.309-3.123,0.361-4.647,0.219c-2.834-0.266-5.249-1.2-7.118-2.725L279.994,218.533z"/>
				</g>
				<path style="fill-rule:evenodd;clip-rule:evenodd;fill:#1E1B32;" d="M293.954,219.031c-0.312-5.229-2.738-10.039-6.687-13.259
					c-3.949-3.221-9.062-4.557-14.092-3.686c-1.473-0.374-2.558-1.639-2.743-3.195c-0.185-1.557,0.569-3.093,1.904-3.88
					c-3.672-1.973-5.293-6.486-3.782-10.534c1.51-4.048,5.681-6.368,9.733-5.413c1.353-3.284,4.607-5.316,8.02-5.009
					c3.414,0.306,6.187,2.88,6.836,6.343c2.887-2.785,7.217-3.177,10.431-0.944c3.214,2.234,4.454,6.497,2.988,10.27
					c1.861,0.543,3.246,2.127,3.582,4.097c0.336,1.969-0.434,3.988-1.992,5.224c2.552,2.041,3.343,5.671,1.901,8.719
					c-1.442,3.049-4.727,4.694-7.893,3.951c-2.376,3.714-3.566,5.571-3.566,5.571c0.406,0.875,0.286,1.923-0.309,2.697
					c-0.595,0.774-1.561,1.137-2.484,0.934C294.879,220.713,294.161,219.98,293.954,219.031z"/>
				<path style="fill-rule:evenodd;clip-rule:evenodd;fill:#96303F;" d="M298.468,194.712v16.102
					c-0.2,1.689-0.797,4.477-2.858,6.871c-5.38,6.25-17.294,5.82-21.565,0.655c-1.416-1.712-1.71-5.085-2.24-11.761
					c-0.388-4.886-0.465-8.972-0.458-11.867C280.388,194.712,289.428,194.712,298.468,194.712z"/>
				<path style="fill-rule:evenodd;clip-rule:evenodd;fill:#1E1B32;" d="M270.741,193.028c0.666-0.799,0.953-2.014,0.805-2.991
					c-0.021-0.141-0.058-0.291-0.102-0.443c6.211,0.532,12.424,1.034,18.653,1.349c3.724,0.189,7.638,0.892,11.575,1.457
					c-0.463,1.196-0.586,2.406-0.397,3.553c-0.137-0.077-0.276-0.152-0.41-0.236c-0.058,4.418-3.336,8.113-7.896,8.9
					c-4.56,0.787-9.187-1.543-11.144-5.613c-2.008,1.037-4.496,0.895-6.437-0.367c-1.939-1.261-2.999-3.428-2.742-5.605
					C272.003,193.101,271.365,193.098,270.741,193.028z"/>
				<g>
					<path style="fill:#1E1B32;" d="M287.426,205.429c0.516,0,0.935,0.676,0.935,1.51c0,0.834-0.419,1.51-0.935,1.51
						c-0.516,0-0.935-0.676-0.935-1.51C286.491,206.105,286.91,205.429,287.426,205.429z"/>
					<path style="fill:#1E1B32;" d="M278.348,205.429c0.516,0,0.935,0.676,0.935,1.51c0,0.834-0.418,1.51-0.935,1.51
						c-0.516,0-0.935-0.676-0.935-1.51C277.413,206.105,277.832,205.429,278.348,205.429z"/>
					<path style="fill:#822A37;" d="M281.028,207.027c-0.167,1.037-0.528,3.015-1.074,4.686c0,0-0.776-0.842-1.057-0.09
						c-0.281,0.752,0.798,1.114,0.798,1.114s1.026,2.09,2.619,0.548c0,0,1.653-0.346,1.238-1.193
						c-0.415-0.847-0.986,0.133-0.986,0.133s0.423-2.272,0.441-5.029c0.003-0.479-0.326-0.906-0.795-1.001
						c-0.01-0.002-0.02-0.004-0.031-0.006C281.636,206.084,281.117,206.478,281.028,207.027z"/>
					<path style="fill:#1E1B32;" d="M284.532,203.295c0,0,3.721-2.588,5.878,0.917c0,0,1.294-1.564-1.025-2.912
						C287.066,199.951,283.669,200.275,284.532,203.295z"/>
					<path style="fill:#1E1B32;" d="M281.398,203.295c0,0-3.721-2.588-5.878,0.917c0,0-1.294-1.564,1.025-2.912
						C278.864,199.951,282.261,200.275,281.398,203.295z"/>
					<path style="fill:#96303F;" d="M302.265,207.648c0.234,2.778-1.828,5.22-4.607,5.455c-2.778,0.234-5.22-1.828-5.455-4.607
						c-0.234-2.779,1.828-5.221,4.607-5.455C299.589,202.808,302.031,204.87,302.265,207.648z"/>
					
						<path style="fill:none;stroke:#201D2D;stroke-width:0.8061;stroke-linecap:round;stroke-linejoin:round;stroke-miterlimit:10;" d="
						M295.602,209.716c0,0-0.307-3.647,3.229-3.367"/>
				</g>
				<path style="fill-rule:evenodd;clip-rule:evenodd;fill:none;stroke:#000000;stroke-width:0.6432;stroke-miterlimit:10;" d="
					M292.636,237.93c0,0-1.277,8.503-8.809,7.158c0,0-4.761-1.641-5.205-7.075"/>
			</g>
			<g>
				
					<text transform="matrix(1 0 0 1 217.5034 126.0339)" style="fill:#562B94; font-family:'Montserrat-ExtraBold'; font-size:43.9323px;">VOTE</text>
			</g>
			<g>
				<path style="fill:#1E1B32;" d="M288.287,214.712c-0.699-1.301-3.117,1.013-7.068,0.482c-2.48-0.334-3.364-1.397-4.102-0.214
					c-0.785,1.258,0.302,4.389,4.47,4.762C285.771,220.117,289.532,217.029,288.287,214.712z"/>
				<path style="fill:#FFFFFF;" d="M281.219,215.194c2.783,0.375,4.801-0.659,5.998-0.851c-1.274,1.213-3.478,2.084-5.815,1.875
					c-1.833-0.164-3.069-0.862-3.813-1.699C278.273,214.196,279.234,214.927,281.219,215.194z"/>
			</g>
			<path style="fill:#2D1856;" d="M316.11,248.262c-0.26,2.22-0.5,4.56-0.73,6.97h-63.67c-0.58-2.32-1.19-4.65-1.8-6.97H316.11z"/>
			<path style="fill:#2D1856;" d="M315.04,259.162c-0.2,2.27-0.38,4.61-0.56,6.97h-60.14c-0.53-2.31-1.09-4.64-1.65-6.97H315.04z"/>
			<path style="fill:#2D1856;" d="M314.13,271.042c-0.16,2.32-0.32,4.65-0.48,6.97H256.9c-0.46-2.31-0.95-4.63-1.46-6.97H314.13z"/>
			<path style="fill:#2D1856;" d="M313.38,281.952c-0.17,2.36-0.34,4.68-0.51,6.96H258.9c-0.38-2.29-0.79-4.61-1.24-6.96H313.38z"/>
			<path style="fill:#2D1856;" d="M312.65,291.582c-0.19,2.41-0.39,4.74-0.61,6.97h-0.49c-0.05-0.65-0.09-0.98-0.09-0.98
				c-6.54,0.33-13.08,0.65-19.62,0.98h-31.5c-0.3-2.28-0.63-4.61-1.01-6.97H312.65z"/>
			<path style="fill:#2D1856;" d="M311.46,297.572c0,0,0.04,0.33,0.09,0.98h-19.71C298.38,298.222,304.92,297.902,311.46,297.572z"
				/>
			
				<line style="fill:none;stroke:#000000;stroke-width:0.6432;stroke-miterlimit:10;" x1="249.91" y1="248.262" x2="295.809" y2="248.178"/>
		</g>
		<g>
			<g>
				<g>
					<path style="fill:#2D1856;" d="M379.605,279.339l-6.117-86.27c0,0,16.307,9.553,26.15,8.14l27.405,8.424l-8.885,69.707H379.605
						z"/>
					<path style="fill:#2D1856;" d="M377.499,228.894c0,0-19.881-29.827-22.428-37.219c-2.547-7.392,3.135-44.813,3.135-44.813
						l7.746,2.155v35.56l24.143,17.439C390.095,202.016,381.893,223.752,377.499,228.894z"/>
					<path style="fill:#FABBB8;" d="M410.572,191.671l-1.881,12.223c0,0-7.404,6.347-9.167,4.701c-1.763-1.645,0-15.859,0-15.859
						L410.572,191.671z"/>
					<path style="fill:#2D1856;" d="M427.042,209.632c8.826,9.202,19.101,23.229,23.13,42.078c1.73,8.095,3.493,16.341-0.508,19.906
						c-8.113,7.231-34.372-9.723-48.411-19.565l1.915-8.431l30.479,11.671c-4.207-4.158-8.414-8.316-12.62-12.474
						C423.032,231.756,425.037,220.694,427.042,209.632z"/>
					<path style="fill:#FABBB8;" d="M421.263,357.011c-1.293,30.592-3.613,63.689-7.605,95.049l-9.192,1.297
						c-0.049-7.911-1.516-48.205-5.108-96.346H421.263z"/>
					<path style="fill:#FABBB8;" d="M374.821,369.087c1.098,31.613,14.372,64.602,16.987,70.282l-5.417,4.514
						c-3.811-5.814-27.582-42.022-32.387-74.796H374.821z"/>
					<path style="fill:#1E1B32;" d="M414.752,443.945c0,0,0.854,7.003,11.917,12.037c11.063,5.034,16.534,8.316,5.81,10.286
						c-6.738,1.238-30.202-2.845-31.734-8.535c-1.532-5.69,3.939-13.788,3.939-13.788s1.313,3.502,4.377,4.158
						C412.126,448.76,410.375,443.945,414.752,443.945z"/>
					<path style="fill:#1E1B32;" d="M382.088,437.752c0,0,0.815,5.764-6.927,12.138c-7.741,6.374-11.401,10.159-2.434,9.438
						c5.635-0.453,23.462-8.717,23.468-13.579c0.006-4.862-6.084-10.147-6.084-10.147s-0.299,3.071-2.6,4.249
						C385.209,441.028,385.577,436.817,382.088,437.752z"/>
					<path style="fill:#562B94;" d="M399.156,169.053c0.4-3.449,1.338-6.919,3.361-9.742c0.113-0.158,0.231-0.312,0.351-0.465
						l-3.126-3.476c0,0,3.833-0.942,8.538-0.477c0.953-0.33,1.949-0.521,2.968-0.53c2.249-0.02,4.384,0.791,6.6,1.039
						c0.833,0.093,1.665,0.283,2.483,0.372c1.091,0.119,2.071-0.439,3.072-0.797c4.351-1.556,9.356,0.164,12.796,3.251
						c0.984,0.883,1.878,1.88,2.54,3.023c1.381,2.385,1.67,5.284,1.276,8.012c-0.394,2.727-1.426,5.319-2.554,7.833
						c-0.882,1.965-1.852,4.055-1.507,6.181c0.839,5.156,7.724,5.071,10.269,8.981c0.759,1.165,1.069,2.615,0.854,3.988
						c-0.485,3.102-2.883,5.558-1.942,8.861c0.338,1.187,0.933,2.282,1.447,3.404c1.286,2.805,2.089,5.864,2.05,8.949
						c-0.038,3.085-0.954,6.197-2.828,8.648c-0.604,0.79-1.323,1.522-2.221,1.952c-0.547,0.262-1.146,0.404-1.749,0.472
						c-2.346,0.264-4.724-0.596-6.62-2.003c-1.896-1.407-3.355-3.325-4.582-5.342c-1.556-2.557-2.797-5.377-3.063-8.358
						c-0.218-2.446,0.276-5.027,1.649-7.089c1.417-2.127,3.438-4.049,2.793-6.903c-0.616-2.722-3.584-4.17-6.295-4.834
						c-2.711-0.664-5.704-1.028-7.707-2.971c-0.546-0.53-0.972-1.136-1.309-1.788c-1.268,0.98-2.679,1.808-4.243,2.428
						c-5.586,2.213-7.437-6.202-7.929-14.778c-0.901,0.59-2.048,0.87-3.04,0.473C398.644,176.231,398.876,171.463,399.156,169.053z"
						/>
					<path style="fill:#1E1B32;" d="M399.004,201.805c1.095-0.138,7.275-1.016,10.271-6.112c0.735-1.25,1.128-2.499,1.335-3.593
						c0.009-0.096,0.05-0.639-0.35-1.1c-0.346-0.398-0.794-0.473-0.909-0.488l-11.038,1.806L399.004,201.805z"/>
					<path style="fill:#FABBB8;" d="M401.925,195.277L401.925,195.277c-6.737,0.118-12.38-5.107-12.661-10.606l-0.586-12.979
						c-0.353-6.893,4.825-12.823,11.702-13.402l0,0c7.04-0.593,14.463,4.529,15.056,11.57l0.358,10.444
						C416.07,188.38,409.979,194.598,401.925,195.277z"/>
					<polygon style="fill:#562B94;" points="410.17,170.68 412.286,180.217 421.435,168.413 					"/>
					<g>
						<path style="fill:#FABBB8;" d="M422.062,178.724c0.243,2.886-1.899,5.423-4.786,5.666c-2.886,0.243-5.423-1.899-5.667-4.785
							c-0.243-2.886,1.899-5.423,4.786-5.667C419.282,173.695,421.819,175.838,422.062,178.724z"/>
						
							<path style="fill:none;stroke:#201D2D;stroke-width:0.8374;stroke-linecap:round;stroke-linejoin:round;stroke-miterlimit:10;" d="
							M415.14,180.872c0,0-0.319-3.789,3.354-3.498"/>
					</g>
					<path style="fill:#562B94;" d="M385.803,164.872c2.219-5.997,10.67-9.587,17.058-9.879c3.555-0.162,5.22,0.407,6.603,1.036
						c0.656,0.298,0.859,1.002,0.794,1.895c2.425,0.333,5.495,1.891,7.388,7.102c3.502,9.645-5.637,9.649-5.637,9.649
						s-4.456-3.037-5.61-9.272c-3.563-0.126-18.355-0.014-17.527,10.596C388.872,175.999,383.091,172.203,385.803,164.872z"/>
					<path style="fill:#562B94;" d="M349.031,378.471c-2.525-9.911-5.7-27.999-1.165-49.724
						c6.299-30.177,23.682-49.211,31.162-56.539c0.349,0.387,0.699,0.774,1.048,1.161c3.747-1.643,9.56-3.641,16.886-4.047
						c10.529-0.583,18.721,2.423,22.94,4.331c2.565,17.652,4.652,36.765,5.917,57.189c1.084,17.498,1.45,34.093,1.304,49.663
						c-8.362,1.083-18.211,1.698-29.203,1.119c-6.156-0.324-25.796-1.662-30.484-1.804
						C360.875,379.621,354.724,379.134,349.031,378.471z"/>
					<path style="fill:#1E1B32;" d="M377.502,266.423c13.73,2.631,28.698,3.07,42.472,1.242v7.385
						c-13.844,1.618-28.677,1.165-42.472-1.276V266.423z"/>
					<g>
						<path style="fill:#1E1B32;" d="M401.878,177.512c0.474,0,0.858,0.621,0.858,1.386c0,0.766-0.384,1.386-0.858,1.386
							s-0.858-0.621-0.858-1.386C401.019,178.133,401.404,177.512,401.878,177.512z"/>
						<path style="fill:#1E1B32;" d="M393.542,177.512c0.474,0,0.858,0.621,0.858,1.386c0,0.766-0.384,1.386-0.858,1.386
							c-0.474,0-0.858-0.621-0.858-1.386C392.684,178.133,393.068,177.512,393.542,177.512z"/>
						<path style="fill:#F0A7A4;" d="M396.003,178.979c-0.154,0.952-0.485,2.768-0.986,4.302c0,0-0.713-0.773-0.97-0.083
							c-0.258,0.69,0.733,1.023,0.733,1.023s0.943,1.919,2.405,0.503c0,0,1.518-0.318,1.137-1.096
							c-0.381-0.778-0.905,0.122-0.905,0.122s0.388-2.086,0.405-4.618c0.003-0.439-0.299-0.832-0.73-0.919
							c-0.009-0.002-0.019-0.004-0.028-0.006C396.562,178.114,396.085,178.475,396.003,178.979z"/>
						<path style="fill:#1E1B32;" d="M400.495,173.937c0,0,3.417-2.377,5.397,0.842c0,0,1.188-1.436-0.941-2.674
							C402.822,170.867,399.703,171.164,400.495,173.937z"/>
						<path style="fill:#1E1B32;" d="M396.598,173.852c0,0-3.417-2.377-5.397,0.842c0,0-1.188-1.436,0.941-2.674
							C394.271,170.782,397.391,171.079,396.598,173.852z"/>
					</g>
					<path style="fill:#E8E8E8;" d="M398.717,201.168l3.357,5.594l7.781-5.594c0,0,4.661,12.38,1.443,13.934
						c-2.468,1.191-8.072-3.269-10.552-5.414c-2.757,1.17-6.992,2.728-7.912,1.699C391.445,209.833,398.717,201.168,398.717,201.168
						z"/>
					<path style="fill:none;stroke:#000000;stroke-width:0.6682;stroke-miterlimit:10;" d="M421.026,242.818
						c0,0,13.809,15.103,16.757,16.086"/>
					<path style="fill:none;stroke:#000000;stroke-width:0.6682;stroke-miterlimit:10;" d="M355.071,191.674
						c6.889,11.381,13.778,22.762,20.666,34.143"/>
					<path style="fill:none;stroke:#000000;stroke-width:0.6682;stroke-miterlimit:10;" d="M409.855,201.168
						c0,0,7.419,15.984-1.131,13.734"/>
					<g>
						<path style="fill:#FABBB8;" d="M363.898,148.671c-1.624-0.55-3.248-1.101-4.872-1.651c-0.021-0.428-0.034-1.001-0.002-1.679
							c0.279-5.973,3.569-11.011,4.009-10.906c0.189,0.045,0.03,1.09-1.294,5.065c0,0,4.061-5.946,4.924-5.706
							c0.863,0.24-2.647,6.167-2.647,6.167s4.409-6.66,5.572-6.457c1.163,0.202-2.159,6.223-2.159,6.223
							c0,0,3.038-4.635,3.832-4.381c0.217,0.069,0.191,0.483,0.18,0.662c-0.104,1.65-2.729,5.783-4.885,8.925
							c1.71-0.91,4.844-2.474,4.921-1.74c0.105,1.009-6.273,4.914-6.273,4.914S364.146,148.335,363.898,148.671z"/>
					</g>
					<g>
						<path style="fill:#FABBB8;" d="M395.098,246.507c0.235-0.864,6.185,2.606,6.185,2.606s-6.689-4.365-6.494-5.529
							s6.237,2.118,6.237,2.118c0,0-4.655-3.007-4.407-3.803c0.068-0.217,0.482-0.195,0.661-0.184
							c1.651,0.093,5.801,2.691,8.957,4.825c-0.921-1.704-2.506-4.828-1.773-4.909c1.009-0.112,4.955,6.241,4.955,6.241
							s0.236,1.056,0.574,1.301c-0.095,0.286-0.19,0.573-0.285,0.859c-0.419,0.391-0.762,0.863-1.014,1.394
							c-0.407,0.857-0.611,1.787-0.988,2.654c-0.302,0.005-0.638,0.004-1.01-0.011c-5.975-0.239-11.035-3.496-10.933-3.936
							c0.044-0.19,1.09-0.037,5.073,1.26C400.837,251.393,394.863,247.371,395.098,246.507z"/>
					</g>
					<path style="fill:none;stroke:#000000;stroke-width:0.6682;stroke-miterlimit:10;" d="M433.198,255.467
						c-7.315-2.931-14.63-5.862-21.944-8.792c-1.287,3.028-2.574,6.056-3.861,9.084"/>
					<path style="fill:none;stroke:#000000;stroke-width:0.6682;stroke-miterlimit:10;" d="M419.974,267.666
						c0,0-29.578,3.31-41.603-1.101l-0.078-0.588c-0.904-14.651-1.809-29.303-2.713-43.954"/>
					<path style="fill:none;stroke:#000000;stroke-width:0.6682;stroke-miterlimit:10;" d="M427.123,380.505
						c0,0-29.224,2.767-78.092-2.034"/>
					
						<rect x="352.598" y="67.439" transform="matrix(-0.9524 -0.3049 0.3049 -0.9524 735.7501 329.7956)" style="fill:#C290FF;" width="82.056" height="80.02"/>
				</g>
				<polyline style="fill:none;stroke:#000000;stroke-width:0.6682;stroke-miterlimit:10;" points="366.75,56.835 342.352,133.046 
					420.502,158.064 				"/>
			</g>
			<g>
				
					<text transform="matrix(0.9502 0.3116 -0.3116 0.9502 358.9355 103.1832)" style="fill:#562B94; font-family:'Montserrat-ExtraBold'; font-size:30.9594px;">YES!</text>
			</g>
			<path style="fill:#FFFFFF;" d="M394.124,188.387c0,0,6.596-1.205,11.376-4.232c0,0,0.554,5.02-3.981,6.707
				C398.698,191.911,395.909,191.332,394.124,188.387z"/>
		</g>
	</g>
</g>
</svg>
